<?xml version="1.0" encoding="utf-8"?>
<!-- Generator: Adobe Illustrator 27.5.0, SVG Export Plug-In . SVG Version: 6.00 Build 0)  -->
<svg version="1.1" xmlns="http://www.w3.org/2000/svg" xmlns:xlink="http://www.w3.org/1999/xlink" x="0px" y="0px"
	 viewBox="0 0 650 500" style="enable-background:new 0 0 650 500;" xml:space="preserve">
<g id="BACKGROUND">
</g>
<g id="OBJECTS">
	<g>
		<path style="fill:#D9F0FF;" d="M567.54,325.21c-2.16,4.47-4.59,8.81-7.28,12.97c-20.19,31.26-56.42,57.29-92.26,67.29
			c-72.14,20.12-148.26,23.89-222.48,13.33c-41.24-5.85-81.89-16.12-120.96-30.46c-18.72-6.87-37.42-14.83-52.74-27.61
			c-10.18-8.5-18.77-19.45-23.6-31.69c-2.44-6.17-3.92-12.67-4.17-19.34c-0.75-19.93,11.48-40.8,30.66-46.27
			c10.28-2.93,21.39-1.42,31.73-4.11c10.34-2.69,20.5-12.6,17.29-22.79c-3.64-11.6-19.77-12.55-29.05-20.4
			c-9.82-8.31-10.31-24.42-3.17-35.12c7.13-10.71,20.06-16.42,32.85-17.81c12.79-1.4,25.66,0.94,38.32,3.28
			c24.65,4.55,51.95,0.35,75.58-8c23.64-8.34,46-20.08,69.83-27.85c61.46-20.07,131.59-11.7,186.61,22.26
			c31.34,19.34,61.99,44.92,76.7,78.69c2.05,4.71,3.71,9.56,4.99,14.49C583.15,272.13,579.39,300.71,567.54,325.21z"/>
		<path style="fill:#FFFFFF;" d="M272.27,353.77c-1.12,4.75-4.85,8.79-9.48,10.28c-3.51,1.13-7.29,0.86-10.97,0.88
			c-3.68,0.02-7.58,0.43-10.54,2.63c-2.95,2.2-4.43,6.74-2.21,9.68c2.12,2.83,6.21,2.89,9.65,3.73
			c10.14,2.46,16.43,15.01,12.34,24.61c-2.76,6.49-8.82,10.52-15.54,13.22c-41.24-5.85-81.89-16.12-120.96-30.46
			c-18.72-6.87-37.42-14.83-52.74-27.61c-10.18-8.5-18.77-19.45-23.6-31.69c54.49,1.17,109,2.36,163.5,3.53
			c12.41,0.27,25.26,1.21,37.65,1.96c6.76,0.4,14.15,1.07,19,5.81C271.85,343.75,273.38,349.03,272.27,353.77z"/>
		<path style="fill:#FFFFFF;" d="M567.54,325.21c-14.66-1.43-29.32-2.86-43.99-4.3c-7.13-0.7-14.59-1.51-20.5-5.55
			c-5.91-4.04-9.5-12.43-5.85-18.59c2.67-4.51,8.29-6.45,13.53-6.62c5.23-0.16,10.42,1.07,15.65,1.28c5.24,0.2,10.93-0.86,14.49-4.7
			c3.57-3.85,3.62-11.04-0.92-13.66c-4.55-2.62-10.75,0.4-15.41-2.01c-5.26-2.73-5-11-0.91-15.28c4.08-4.29,10.33-5.57,16.18-6.46
			c12.11-1.84,24.33-2.93,36.58-3.25C583.15,272.13,579.39,300.71,567.54,325.21z"/>
	</g>
	<ellipse style="fill:#74C3A4;" cx="322.252" cy="455.015" rx="223.666" ry="9.409"/>
	<g>
		<polygon style="fill:#FFD990;" points="157.537,249.621 152.712,257.978 162.362,257.978 		"/>
		<polygon style="fill:#FFADB5;" points="95.228,113.269 90.404,121.626 100.053,121.626 		"/>
		<polygon style="fill:#FFADB5;" points="462.552,58.926 457.728,67.283 467.377,67.283 		"/>
		<polygon style="fill:#FB7D4D;" points="359.508,178.605 364.332,170.248 354.683,170.248 		"/>
		<polygon style="fill:#FFADB5;" points="583.058,214.271 587.883,205.914 578.233,205.914 		"/>
		<polygon style="fill:#FFD990;" points="554.61,386.168 559.435,377.811 549.785,377.811 		"/>
		<polygon style="fill:#FFD990;" points="225.184,46.637 227.583,51.498 232.948,52.277 229.066,56.061 229.982,61.404 
			225.184,58.881 220.386,61.404 221.302,56.061 217.421,52.277 222.785,51.498 		"/>
		<polygon style="fill:#FFADB5;" points="551.671,121.12 554.07,125.981 559.435,126.76 555.553,130.544 556.469,135.887 
			551.671,133.365 546.873,135.887 547.789,130.544 543.907,126.76 549.272,125.981 		"/>
		<polygon style="fill:#FB7D4D;" points="515.503,315.453 517.902,320.314 523.267,321.094 519.385,324.878 520.301,330.22 
			515.503,327.698 510.705,330.22 511.621,324.878 507.739,321.094 513.104,320.314 		"/>
		<polygon style="fill:#FFADB5;" points="76.856,287.47 79.255,292.331 84.62,293.111 80.738,296.895 81.654,302.238 
			76.856,299.715 72.058,302.238 72.974,296.895 69.092,293.111 74.457,292.331 		"/>
		<circle style="fill:#FB7D4D;" cx="299.958" cy="56.449" r="1.5"/>
		<circle style="fill:#FFADB5;" cx="371.744" cy="93.336" r="1.5"/>
		<circle style="fill:#FFADB5;" cx="336.175" cy="215.733" r="1.5"/>
		<circle style="fill:#FFADB5;" cx="363.567" cy="338.509" r="1.5"/>
		<circle style="fill:#FFADB5;" cx="119.386" cy="294.854" r="1.5"/>
		<circle style="fill:#FFADB5;" cx="138.372" cy="284.957" r="1.5"/>
		<circle style="fill:#FFADB5;" cx="279.112" cy="383.193" r="1.5"/>
		<circle style="fill:#FFADB5;" cx="503.149" cy="353.855" r="1.5"/>
		<circle style="fill:#FB7D4D;" cx="593.083" cy="353.855" r="1.5"/>
		<circle style="fill:#FFADB5;" cx="579.733" cy="341.761" r="1.5"/>
		<circle style="fill:#FFD990;" cx="576.733" cy="168.928" r="1.5"/>
		<circle style="fill:#FFADB5;" cx="518.49" cy="228.813" r="1.5"/>
		<circle style="fill:#FB7D4D;" cx="93.953" cy="241.843" r="1.5"/>
		<circle style="fill:#FFADB5;" cx="288.842" cy="78.353" r="1.5"/>
		<circle style="fill:#FFADB5;" cx="376.888" cy="317.294" r="1.5"/>
		<circle style="fill:#FB7D4D;" cx="554.61" cy="162.62" r="1.5"/>
		<circle style="fill:#FB7D4D;" cx="125.466" cy="356.618" r="1.5"/>
		<circle style="fill:#FFADB5;" cx="294.77" cy="401.566" r="1.5"/>
		<circle style="fill:#FFD990;" cx="103.327" cy="150.911" r="1.5"/>
		<circle style="fill:#FB7D4D;" cx="123.966" cy="108.919" r="1.5"/>
	</g>
	<g>
		<g>
			<path style="fill:#FFB399;" d="M181.899,80.447c-20.876-18.576-49.605-35.653-66.215-43.827
				c-7.729-1.852-15.458-3.703-23.187-5.555c-0.582,0.644-0.591,1.674-0.133,2.411c0.458,0.738,1.204,1.24,1.927,1.72
				c2.046,1.357,4.093,2.714,6.139,4.071c-1.684,1.63-3.66,3.247-5.343,4.878c-0.518,0.501-1.097,1.11-1.139,1.829
				c-0.042,0.719,0.258,1.451,0.793,1.933c-0.628-0.122-1.351-0.006-1.881,0.353c-0.53,0.36-0.908,0.935-1.027,1.564
				c3.508,3.202,7.321,6.022,11.198,8.764c1.089,0.77,2.178,1.54,3.267,2.31c2.353,1.664,4.937,3.223,7.773,3.731
				c11.971,12.854,24.02,25.801,35.992,38.655c14.128,15.169,31.771,26.888,47.555,40.325l17.284-45.883L181.899,80.447z"/>
			<path style="fill:none;stroke:#000200;stroke-width:0.8;stroke-linecap:round;stroke-linejoin:round;stroke-miterlimit:10;" d="
				M100.198,38.959c2.73,1.421,5.438,3.118,8.169,4.54c-0.113,2.028-0.037,3.979-0.15,6.007c-4.675-0.597-9.351-1.195-14.026-1.792"
				/>
			<path style="fill:none;stroke:#000200;stroke-width:0.8;stroke-linecap:round;stroke-linejoin:round;stroke-miterlimit:10;" d="
				M100.619,46.249c2.528-0.227,5.055-0.453,7.583-0.68"/>
			<path style="fill:none;stroke:#000200;stroke-width:0.8;stroke-linecap:round;stroke-linejoin:round;stroke-miterlimit:10;" d="
				M113.675,64.782c0.736,0.052,1.472,0.104,2.207,0.156"/>
		</g>
		<g>
			<g>
				<path style="fill:#FFB399;" d="M369.07,412.78l-42.63,20.05c-5.24-14.19-10.98-28.1-17.02-41.88
					c-8.28-18.93-17.12-37.65-25.96-56.63c-7.54-9.02-12.34-19.91-16.58-30.88c-2.87-7.43-5.65-14.39-8.52-21.83
					c18.34-8.29,38.41-14.4,58.19-18.14c2.22,12.59,4.43,25.18,6.65,37.77c10.34,19.23,21.79,43.04,31.43,67.83
					C360.26,383.55,365.27,398.36,369.07,412.78z"/>
				<path style="fill:none;stroke:#000200;stroke-width:0.8;stroke-linecap:round;stroke-linejoin:round;stroke-miterlimit:10;" d="
					M287.415,331.404c3.948,1.678,8.923,0.503,11.702-2.765"/>
			</g>
			<g>
				<path style="fill:#FFFFFF;" d="M369.07,412.78l-42.63,20.05c-5.24-14.19-10.98-28.1-17.02-41.88l45.21-21.88
					C360.26,383.55,365.27,398.36,369.07,412.78z"/>
				<path style="fill:none;stroke:#000200;stroke-width:0.8;stroke-linecap:round;stroke-linejoin:round;stroke-miterlimit:10;" d="
					M313.294,391.792c1.036,2.246,2.073,4.491,3.109,6.737"/>
				<path style="fill:none;stroke:#000200;stroke-width:0.8;stroke-linecap:round;stroke-linejoin:round;stroke-miterlimit:10;" d="
					M317.57,390.007c0.943,2.411,1.887,4.822,2.83,7.233"/>
				<path style="fill:none;stroke:#000200;stroke-width:0.8;stroke-linecap:round;stroke-linejoin:round;stroke-miterlimit:10;" d="
					M320.292,388.637c0.841,2.052,1.681,4.104,2.522,6.156"/>
				<path style="fill:none;stroke:#000200;stroke-width:0.8;stroke-linecap:round;stroke-linejoin:round;stroke-miterlimit:10;" d="
					M328.872,384.357c0.883,2.117,1.766,4.235,2.649,6.352"/>
				<path style="fill:none;stroke:#000200;stroke-width:0.8;stroke-linecap:round;stroke-linejoin:round;stroke-miterlimit:10;" d="
					M336.804,380.572c1.286,2.473,2.571,4.945,3.857,7.418"/>
				<path style="fill:none;stroke:#000200;stroke-width:0.8;stroke-linecap:round;stroke-linejoin:round;stroke-miterlimit:10;" d="
					M340.603,378.924c0.994,2.449,1.988,4.898,2.982,7.347"/>
				<path style="fill:none;stroke:#000200;stroke-width:0.8;stroke-linecap:round;stroke-linejoin:round;stroke-miterlimit:10;" d="
					M348.363,374.865c0.951,2.467,1.903,4.933,2.854,7.4"/>
				<path style="fill:none;stroke:#000200;stroke-width:0.8;stroke-linecap:round;stroke-linejoin:round;stroke-miterlimit:10;" d="
					M353.269,372.694c0.77,2.116,1.54,4.231,2.311,6.347"/>
			</g>
			<g>
				<path style="fill:#000200;" d="M366.699,395.534c-9.802,8.026-19.709,16.076-29.511,24.102
					c-2.388-2.355-5.727-3.717-9.081-3.705c-3.354,0.012-6.682,1.398-9.054,3.769c4.166,7.796,3.472,17.91-1.272,25.369
					c-2.11,3.317-5.115,6.429-4.256,10.265l18.243-0.008c14.99-9.906,30.371-19.621,45.361-29.527
					C373.613,415.677,370.214,405.656,366.699,395.534z"/>
				<path style="fill:none;stroke:#FFFFFF;stroke-width:0.8;stroke-linecap:round;stroke-linejoin:round;stroke-miterlimit:10;" d="
					M314.764,453.82c4.177-0.022,8.354-0.045,12.531-0.067c15.953-10.426,31.842-20.629,47.795-31.054"/>
				<path style="fill:none;stroke:#FFFFFF;stroke-width:0.8;stroke-linecap:round;stroke-linejoin:round;stroke-miterlimit:10;" d="
					M323.611,429.974c2.938-0.719,5.876-1.439,8.814-2.158"/>
				<path style="fill:none;stroke:#FFFFFF;stroke-width:0.8;stroke-linecap:round;stroke-linejoin:round;stroke-miterlimit:10;" d="
					M322.896,433.144c3.055-0.495,6.11-0.99,9.165-1.484"/>
				<path style="fill:none;stroke:#FFFFFF;stroke-width:0.8;stroke-linecap:round;stroke-linejoin:round;stroke-miterlimit:10;" d="
					M322.359,436.863c3.234-0.2,6.468-0.4,9.702-0.6"/>
			</g>
		</g>
		<g>
			<g>
				<path style="fill:#FFB399;" d="M241.42,275.95c-4.43,14.18-12.69,42.61-12.69,42.61c-1.67,25.55-5.97,50.81-12.83,75.38
					c-4.11,14.73-9.15,29.21-15.09,43.35c-15.23-3.78-30.81-8.14-46.04-11.92c3.9-14.79,7.48-29.66,10.73-44.6
					c4.824-22.107,8.94-44.371,12.34-66.742c-1.429-13.333,4.591-32.768,6.309-49.218L241.42,275.95z"/>
				<path style="fill:none;stroke:#000200;stroke-width:0.8;stroke-linecap:round;stroke-linejoin:round;stroke-miterlimit:10;" d="
					M179.383,314.317c1.689,2.176,5.074,2.799,7.427,1.367"/>
			</g>
			<g>
				<path style="fill:#D9F0FF;" d="M215.9,393.94c-4.11,14.73-9.15,29.21-15.09,43.35c-15.23-3.78-30.81-8.14-46.04-11.92
					c3.9-14.79,7.48-29.66,10.73-44.6C182.29,385.16,199.1,389.55,215.9,393.94z"/>
				<path style="fill:none;stroke:#000200;stroke-width:0.8;stroke-linecap:round;stroke-linejoin:round;stroke-miterlimit:10;" d="
					M168.609,384.697c-0.543,2.35-1.086,4.7-1.629,7.049"/>
				<path style="fill:none;stroke:#000200;stroke-width:0.8;stroke-linecap:round;stroke-linejoin:round;stroke-miterlimit:10;" d="
					M172.462,385.259c-0.502,2.346-1.003,4.693-1.505,7.039"/>
				<path style="fill:none;stroke:#000200;stroke-width:0.8;stroke-linecap:round;stroke-linejoin:round;stroke-miterlimit:10;" d="
					M174.852,386.087c-0.455,2.238-0.911,4.477-1.366,6.715"/>
				<path style="fill:none;stroke:#000200;stroke-width:0.8;stroke-linecap:round;stroke-linejoin:round;stroke-miterlimit:10;" d="
					M184.249,388.782c-0.646,2.647-1.292,5.295-1.938,7.942"/>
				<path style="fill:none;stroke:#000200;stroke-width:0.8;stroke-linecap:round;stroke-linejoin:round;stroke-miterlimit:10;" d="
					M189.688,390.366c-0.708,2.235-1.416,4.469-2.124,6.704"/>
				<path style="fill:none;stroke:#000200;stroke-width:0.8;stroke-linecap:round;stroke-linejoin:round;stroke-miterlimit:10;" d="
					M196.016,391.77c-0.68,2.107-1.36,4.214-2.04,6.321"/>
				<path style="fill:none;stroke:#000200;stroke-width:0.8;stroke-linecap:round;stroke-linejoin:round;stroke-miterlimit:10;" d="
					M198.005,392.839c-0.537,2.234-1.074,4.467-1.611,6.701"/>
				<path style="fill:none;stroke:#000200;stroke-width:0.8;stroke-linecap:round;stroke-linejoin:round;stroke-miterlimit:10;" d="
					M204.654,394.237c-0.585,2.001-1.171,4.002-1.756,6.003"/>
				<path style="fill:none;stroke:#000200;stroke-width:0.8;stroke-linecap:round;stroke-linejoin:round;stroke-miterlimit:10;" d="
					M211.646,395.628c-0.71,2.293-1.419,4.586-2.129,6.879"/>
			</g>
			<g>
				<path style="fill:#000200;" d="M163.723,421.226c-2.122-3.762-4.775-7.229-6.898-10.991
					c-2.863,8.447-9.396,16.916-18.199,18.352c-3.117,0.508-6.953,1.514-8.458,4.291l65.152,21.465
					c4.01-8.819,8.518-17.748,12.528-26.567C193.226,425.652,178.344,423.35,163.723,421.226z"/>
				<path style="fill:none;stroke:#FFFFFF;stroke-width:0.8;stroke-linecap:round;stroke-linejoin:round;stroke-miterlimit:10;" d="
					M133.094,431.015c20.817,6.259,41.633,12.517,62.449,18.776"/>
				<path style="fill:none;stroke:#FFFFFF;stroke-width:0.8;stroke-linecap:round;stroke-linejoin:round;stroke-miterlimit:10;" d="
					M151.635,420.5c2.131,1.032,4.261,2.064,6.392,3.096"/>
				<path style="fill:none;stroke:#FFFFFF;stroke-width:0.8;stroke-linecap:round;stroke-linejoin:round;stroke-miterlimit:10;" d="
					M149.023,422.905c2.244,0.98,4.488,1.961,6.732,2.941"/>
				<path style="fill:none;stroke:#FFFFFF;stroke-width:0.8;stroke-linecap:round;stroke-linejoin:round;stroke-miterlimit:10;" d="
					M146.794,424.876c2.286,1.019,4.571,2.039,6.857,3.058"/>
			</g>
		</g>
		<g>
			<path style="fill:#74C3A4;" d="M304.73,213.415l-107.092-5.579c-7.569,23.516-15.139,47.033-22.708,70.549
				c22.292,5.414,44.671,10.671,66.963,16.085c2.778-9,5.203-18.101,7.981-27.102c2.785,9.423,6.35,18.442,9.135,27.865
				c23.551-7.366,47.404-14.797,70.955-22.163C321.873,253.129,312.82,233.356,304.73,213.415z"/>
			<path style="fill:none;stroke:#000200;stroke-width:0.8;stroke-linecap:round;stroke-linejoin:round;stroke-miterlimit:10;" d="
				M249.951,268.427c-1.925-6.2-3.85-12.4-5.775-18.599"/>
			<path style="fill:none;stroke:#000200;stroke-width:0.8;stroke-linecap:round;stroke-linejoin:round;stroke-miterlimit:10;" d="
				M255.423,282.914c22.712-7.571,45.423-15.141,68.135-22.712"/>
			<path style="fill:none;stroke:#000200;stroke-width:0.8;stroke-linecap:round;stroke-linejoin:round;stroke-miterlimit:10;" d="
				M178.067,268.041c5.653,1.327,50.51,11.852,67.19,16.172"/>
			<path style="fill:none;stroke:#000200;stroke-width:0.8;stroke-linecap:round;stroke-linejoin:round;stroke-miterlimit:10;" d="
				M299.201,216.625c4.026,15.832,8.052,31.664,12.078,47.496"/>
			<path style="fill:none;stroke:#000200;stroke-width:0.8;stroke-linecap:round;stroke-linejoin:round;stroke-miterlimit:10;" d="
				M236.638,281.907c3.157-8.558,6.314-17.117,9.471-25.675"/>
			<path style="fill:none;stroke:#000200;stroke-width:0.8;stroke-linecap:round;stroke-linejoin:round;stroke-miterlimit:10;" d="
				M267.976,215.809c3.035,7.068,8.257,13.178,14.764,17.279s14.273,6.174,21.959,5.862"/>
			<path style="fill:none;stroke:#000200;stroke-width:0.8;stroke-linecap:round;stroke-linejoin:round;stroke-miterlimit:10;" d="
				M189.036,234.465c7.736-2.611,14.975-6.687,21.219-11.949"/>
		</g>
		<g>
			<path style="fill:#FE5615;" d="M308.118,144.099c0,0,11.134-6.774,16.777-10.133c-11.422-15.937-31.161-27.536-50.718-26.13
				c-5.414,0.389-10.827,0.778-16.24,1.167c-0.86,2.257-3.77,3.78-6.15,3.367c-2.38-0.414-4.307-2.659-4.354-5.074
				c-12.787-3.419-25.731-8.049-37.634-13.837c-7.882,19.765-15.814,39.665-23.696,59.43c5.01,2.391,10.129,4.342,15.139,6.732
				c-3.167,19.512-6.175,39.508-9.342,59.02l117.989-1.763L308.118,144.099z"/>
			<path style="fill:none;stroke:#000200;stroke-width:0.8;stroke-linecap:round;stroke-linejoin:round;stroke-miterlimit:10;" d="
				M240.387,105.939c-1.013,4.82,0.912,10.139,4.776,13.194c3.864,3.055,9.483,3.701,13.94,1.603
				c4.457-2.098,7.539-6.841,7.646-11.766"/>
			<g>
				<path style="fill:none;stroke:#FFADB5;stroke-width:0.8;stroke-linecap:round;stroke-linejoin:round;stroke-miterlimit:10;" d="
					M218.49,110.027c0.797,0.913,1.595,1.825,2.392,2.738"/>
				<path style="fill:none;stroke:#FFADB5;stroke-width:0.8;stroke-linecap:round;stroke-linejoin:round;stroke-miterlimit:10;" d="
					M207.994,129.52c1.177-0.764,2.353-1.529,3.53-2.293"/>
				<path style="fill:none;stroke:#FFADB5;stroke-width:0.8;stroke-linecap:round;stroke-linejoin:round;stroke-miterlimit:10;" d="
					M198.294,138.176c0,1.118,0,2.235,0,3.353"/>
				<path style="fill:none;stroke:#FFADB5;stroke-width:0.8;stroke-linecap:round;stroke-linejoin:round;stroke-miterlimit:10;" d="
					M207.48,141.059c0.764-0.121,1.528-0.243,2.292-0.364"/>
				<path style="fill:none;stroke:#FFADB5;stroke-width:0.8;stroke-linecap:round;stroke-linejoin:round;stroke-miterlimit:10;" d="
					M225.647,132.353c0.529,1,1.059,2,1.588,3"/>
				<path style="fill:none;stroke:#FFADB5;stroke-width:0.8;stroke-linecap:round;stroke-linejoin:round;stroke-miterlimit:10;" d="
					M234.118,113.647c0.765,0.059,1.529,0.118,2.294,0.176"/>
				<path style="fill:none;stroke:#FFADB5;stroke-width:0.8;stroke-linecap:round;stroke-linejoin:round;stroke-miterlimit:10;" d="
					M211.677,99.753c1.052,0.657,2.105,1.315,3.157,1.972"/>
				<path style="fill:none;stroke:#FFADB5;stroke-width:0.8;stroke-linecap:round;stroke-linejoin:round;stroke-miterlimit:10;" d="
					M240.86,123.684c0.53,0.882,1.06,1.764,1.591,2.646"/>
				<path style="fill:none;stroke:#FFADB5;stroke-width:0.8;stroke-linecap:round;stroke-linejoin:round;stroke-miterlimit:10;" d="
					M246.991,133.701c1.235-0.181,2.469-0.362,3.704-0.543"/>
				<path style="fill:none;stroke:#FFADB5;stroke-width:0.8;stroke-linecap:round;stroke-linejoin:round;stroke-miterlimit:10;" d="
					M260.77,127.964c1.235-0.294,2.47-0.588,3.706-0.883"/>
				<path style="fill:none;stroke:#FFADB5;stroke-width:0.8;stroke-linecap:round;stroke-linejoin:round;stroke-miterlimit:10;" d="
					M248.765,144.176c0,1.471,0,2.941,0,4.412"/>
				<path style="fill:none;stroke:#FFADB5;stroke-width:0.8;stroke-linecap:round;stroke-linejoin:round;stroke-miterlimit:10;" d="
					M262.526,151.035c1.176-0.177,2.353-0.355,3.529-0.532"/>
				<path style="fill:none;stroke:#FFADB5;stroke-width:0.8;stroke-linecap:round;stroke-linejoin:round;stroke-miterlimit:10;" d="
					M267.285,137.311c1.174,0.593,2.348,1.186,3.522,1.779"/>
				<path style="fill:none;stroke:#FFADB5;stroke-width:0.8;stroke-linecap:round;stroke-linejoin:round;stroke-miterlimit:10;" d="
					M278.955,135.211c0.884-0.35,1.767-0.699,2.651-1.048"/>
				<path style="fill:none;stroke:#FFADB5;stroke-width:0.8;stroke-linecap:round;stroke-linejoin:round;stroke-miterlimit:10;" d="
					M275.175,115.466c1.003,1.115,2.005,2.231,3.008,3.346"/>
				<path style="fill:none;stroke:#FFADB5;stroke-width:0.8;stroke-linecap:round;stroke-linejoin:round;stroke-miterlimit:10;" d="
					M284.941,111.706c1.118,0.235,2.235,0.471,3.353,0.706"/>
				<path style="fill:none;stroke:#FFADB5;stroke-width:0.8;stroke-linecap:round;stroke-linejoin:round;stroke-miterlimit:10;" d="
					M297.211,117.664c-0.527,1.06-1.053,2.12-1.58,3.181"/>
				<path style="fill:none;stroke:#FFADB5;stroke-width:0.8;stroke-linecap:round;stroke-linejoin:round;stroke-miterlimit:10;" d="
					M305.229,123.068c1.177,0.115,2.353,0.23,3.53,0.346"/>
				<path style="fill:none;stroke:#FFADB5;stroke-width:0.8;stroke-linecap:round;stroke-linejoin:round;stroke-miterlimit:10;" d="
					M300.074,128.476c0.119,1,0.238,2,0.357,2.999"/>
				<path style="fill:none;stroke:#FFADB5;stroke-width:0.8;stroke-linecap:round;stroke-linejoin:round;stroke-miterlimit:10;" d="
					M311.938,131.679c1.234,0.125,2.469,0.251,3.704,0.376"/>
				<path style="fill:none;stroke:#FFADB5;stroke-width:0.8;stroke-linecap:round;stroke-linejoin:round;stroke-miterlimit:10;" d="
					M291.647,135c-0.176,1.353-0.353,2.706-0.529,4.059"/>
				<path style="fill:none;stroke:#FFADB5;stroke-width:0.8;stroke-linecap:round;stroke-linejoin:round;stroke-miterlimit:10;" d="
					M275.775,153.775c1.646-0.239,3.293-0.478,4.939-0.718"/>
				<path style="fill:none;stroke:#FFADB5;stroke-width:0.8;stroke-linecap:round;stroke-linejoin:round;stroke-miterlimit:10;" d="
					M252.833,157.411c0.058,1,0.116,2,0.174,3"/>
				<path style="fill:none;stroke:#FFADB5;stroke-width:0.8;stroke-linecap:round;stroke-linejoin:round;stroke-miterlimit:10;" d="
					M224.412,120.353c-0.529,0.588-1.059,1.177-1.588,1.765"/>
				<path style="fill:none;stroke:#FFADB5;stroke-width:0.8;stroke-linecap:round;stroke-linejoin:round;stroke-miterlimit:10;" d="
					M224.765,103.588c0.882,0.176,1.765,0.353,2.647,0.529"/>
				<path style="fill:none;stroke:#FFADB5;stroke-width:0.8;stroke-linecap:round;stroke-linejoin:round;stroke-miterlimit:10;" d="
					M206.881,115.068c0.122,0.823,0.244,1.646,0.366,2.469"/>
				<path style="fill:none;stroke:#FFADB5;stroke-width:0.8;stroke-linecap:round;stroke-linejoin:round;stroke-miterlimit:10;" d="
					M267.823,162.529c1.118-0.235,2.235-0.471,3.353-0.706"/>
				<path style="fill:none;stroke:#FFADB5;stroke-width:0.8;stroke-linecap:round;stroke-linejoin:round;stroke-miterlimit:10;" d="
					M279.487,159.697c0.432,0.753,0.864,1.506,1.296,2.259"/>
				<path style="fill:none;stroke:#FFADB5;stroke-width:0.8;stroke-linecap:round;stroke-linejoin:round;stroke-miterlimit:10;" d="
					M301.159,209.59c1-0.295,1.999-0.591,2.999-0.886"/>
				<path style="fill:none;stroke:#FFADB5;stroke-width:0.8;stroke-linecap:round;stroke-linejoin:round;stroke-miterlimit:10;" d="
					M267.272,211.777c0.406,0.709,0.811,1.419,1.217,2.128"/>
				<path style="fill:none;stroke:#FFADB5;stroke-width:0.8;stroke-linecap:round;stroke-linejoin:round;stroke-miterlimit:10;" d="
					M286,214.941c0.823-0.235,1.647-0.471,2.471-0.706"/>
			</g>
			<path style="fill:none;stroke:#000200;stroke-width:0.8;stroke-linecap:round;stroke-linejoin:round;stroke-miterlimit:10;" d="
				M292.546,111.075c-2.377,1.03-4.082,3.252-5.008,5.67c-0.926,2.419-1.161,5.042-1.288,7.629
				c-0.411,8.389,0.232,16.828,1.907,25.058"/>
			<path style="fill:none;stroke:#000200;stroke-width:0.8;stroke-linecap:round;stroke-linejoin:round;stroke-miterlimit:10;" d="
				M287.543,144.424c11.13-4.715,22.26-9.429,33.39-14.144"/>
			<path style="fill:none;stroke:#000200;stroke-width:0.8;stroke-linecap:round;stroke-linejoin:round;stroke-miterlimit:10;" d="
				M211.923,94.996c-6.844,17.662-13.688,35.324-20.532,52.986"/>
			<path style="fill:none;stroke:#000200;stroke-width:0.8;stroke-linecap:round;stroke-linejoin:round;stroke-miterlimit:10;" d="
				M223.411,99.533c-1.063,16.95-4.449,33.752-10.033,49.79"/>
		</g>
		<g>
			<g>
				<path style="fill:#FFB399;" d="M263.942,110.076c-1.471,0.037-2.921,0.064-4.392,0.101c0.025-0.883-0.058-1.859-0.033-2.742
					c1.766-0.245,3.422-1.211,4.504-2.628c1.082-1.417,1.595-3.33,1.381-5.1c-0.298-2.475-0.631-4.834-0.929-7.309
					c-4.962,0.216-9.843,0.689-14.805,0.905c-0.372,0.824-0.957,1.548-1.329,2.371c-1.696-0.852-3.924-0.476-5.247,0.884
					c-1.323,1.36-1.637,3.598-0.739,5.27c0.898,1.672,2.938,2.645,4.802,2.293c-0.233,1.474-0.474,2.94-0.707,4.414
					c-1.077-0.239-2.249-0.487-3.327-0.726c-0.365,3.683,1.297,7.752,4.299,9.915c3.002,2.163,7.17,2.589,10.548,1.078
					C261.346,117.29,263.554,113.756,263.942,110.076z"/>
				<circle style="fill:#000200;" cx="263.444" cy="98.305" r="0.8"/>
				<circle style="fill:#000200;" cx="254.341" cy="98.64" r="0.8"/>
				<path style="fill:#FFFFFF;" d="M255.123,101.12c-0.234,0.463-0.155,1.066,0.19,1.454c0.346,0.387,0.936,0.535,1.423,0.355
					c0.487-0.18,0.84-0.675,0.851-1.195L255.123,101.12z"/>
				<path style="fill:none;stroke:#000200;stroke-width:0.8;stroke-linecap:round;stroke-linejoin:round;stroke-miterlimit:10;" d="
					M259.708,98.029c0.115,0.853,0.231,1.707,0.346,2.56c-0.323,0.031-0.642-0.018-0.965,0.013"/>
				<path style="fill:none;stroke:#000200;stroke-width:0.8;stroke-linecap:round;stroke-linejoin:round;stroke-miterlimit:10;" d="
					M253.169,96.346c0.609-0.659,1.652-0.872,2.471-0.505"/>
				<path style="fill:none;stroke:#000200;stroke-width:0.8;stroke-linecap:round;stroke-linejoin:round;stroke-miterlimit:10;" d="
					M262.264,96.079c0.56-0.05,1.119-0.1,1.679-0.15"/>
				<path style="fill:none;stroke:#000200;stroke-width:0.8;stroke-linecap:round;stroke-linejoin:round;stroke-miterlimit:10;" d="
					M252.6,106.783c2.352,1.034,5.01,1.359,7.541,0.922"/>
				<path style="fill:none;stroke:#000200;stroke-width:0.8;stroke-linecap:round;stroke-linejoin:round;stroke-miterlimit:10;" d="
					M244.531,97.845c0.736,0.176,1.471,0.352,2.206,0.527"/>
				<path style="fill:none;stroke:#000200;stroke-width:0.8;stroke-linecap:round;stroke-linejoin:round;stroke-miterlimit:10;" d="
					M246.91,104.279c0.235-0.03,0.471-0.059,0.706-0.088"/>
			</g>
			<g>
				<path style="fill:#A9D4E4;" d="M243.314,95.817c-0.417-3.905,1.33-7.971,4.45-10.356c3.12-2.384,7.503-3.003,11.161-1.575
					c3.658,1.428,6.462,4.853,7.141,8.721l3.999,0.688c0.842,0.145,0.762,1.378-0.091,1.414L243.314,95.817z"/>
				<path style="fill:none;stroke:#000200;stroke-width:0.8;stroke-linecap:round;stroke-linejoin:round;stroke-miterlimit:10;" d="
					M243.735,94.231c7.471-0.585,14.941-1.171,22.412-1.756"/>
			</g>
		</g>
		<g>
			<path style="fill:#FFB399;" d="M249.293,164.758c-3.236,0.044-6.471,0.089-9.706,0.133l1.605,10.808
				c5.698-0.762,11.228-1.643,16.927-2.405C255.217,170.43,252.194,167.621,249.293,164.758z"/>
			<path style="fill:#FFD990;" d="M121.882,131.662c0,0,49.146,31.662,112.257,7.527l27.67,70.903c0,0-66.841,38.383-109.031-2.649
				l-30.896-74.737"/>
			<g>
				<path style="fill:#FFB399;" d="M335.627,158.578c-3.562-8.432-7.879-16.545-12.881-24.211l-33.112,14.587
					c0.602,3.35,1.181,7.139,1.783,10.489c-6.941,4.352-13.836,8.312-20.778,12.665c-10.213-1.719-20.756-2.869-30.969-4.588
					c-2.762,4.531-5.525,9.062-8.287,13.592c-0.634,1.04-0.69,2.943-0.018,3.958s1.895,1.64,3.111,1.592
					c-0.657,1.114-0.936,3.021-0.206,4.088c0.73,1.067,2.104,1.654,3.38,1.445c-0.817,0.983-0.902,2.688-0.323,3.827
					c0.578,1.14,1.868,1.878,3.144,1.799c-1.189,0.621-1.393,2.736-0.635,3.842c0.757,1.106,2.065,1.68,3.318,2.158
					c5.475,2.089,11.243,3.406,17.082,3.899c7.02,0.593,14.18,2.069,21.194,1.409c14.754-1.389,29.417-6.841,42.938-12.908
					c8.498-3.813,14.964-12.228,15.201-21.539C339.71,169.114,337.794,163.709,335.627,158.578z"/>
				<path style="fill:none;stroke:#000200;stroke-width:0.8;stroke-linecap:round;stroke-linejoin:round;stroke-miterlimit:10;" d="
					M291.032,159.45c2.814-2.623,6.076-4.765,9.602-6.305"/>
				<path style="fill:none;stroke:#000200;stroke-width:0.8;stroke-linecap:round;stroke-linejoin:round;stroke-miterlimit:10;" d="
					M233.827,186.943c3.907-3.99,8.521-7.287,13.562-9.691"/>
				<path style="fill:none;stroke:#000200;stroke-width:0.8;stroke-linecap:round;stroke-linejoin:round;stroke-miterlimit:10;" d="
					M237.393,192.004c4.25-1.909,8.499-3.819,12.749-5.728"/>
				<path style="fill:none;stroke:#000200;stroke-width:0.8;stroke-linecap:round;stroke-linejoin:round;stroke-miterlimit:10;" d="
					M239.558,197.868c3.891-0.906,7.781-1.812,11.672-2.717"/>
				<path style="fill:none;stroke:#000200;stroke-width:0.8;stroke-linecap:round;stroke-linejoin:round;stroke-miterlimit:10;" d="
					M245.195,167.987c1.302,0.322,2.603,0.645,3.905,0.968"/>
				<path style="fill:none;stroke:#000200;stroke-width:0.8;stroke-linecap:round;stroke-linejoin:round;stroke-miterlimit:10;" d="
					M271.177,172.235c0.588,0,1.176,0,1.765,0"/>
			</g>
		</g>
	</g>
	<g>
		<g>
			<path style="fill:none;stroke:#000200;stroke-width:0.8;stroke-linecap:round;stroke-linejoin:round;stroke-miterlimit:10;" d="
				M483.749,121.411c5.56-1.368,11.12-2.736,16.68-4.104"/>
			<path style="fill:none;stroke:#000200;stroke-width:0.8;stroke-linecap:round;stroke-linejoin:round;stroke-miterlimit:10;" d="
				M485.355,124.309c4.313-0.631,8.626-1.263,12.939-1.894"/>
			<path style="fill:#000200;" d="M499.216,185.79c-0.742-5.73-3.152-11.394-4.884-16.906c-4.408-14.027-1.195-29.883-7.131-43.334
				c-4.565-10.345-14.581-18.093-25.741-19.913c-11.16-1.82-23.118,2.345-30.733,10.703l53.33,96.951
				c5.681-1.056,10.445-5.343,12.95-10.55C499.513,197.533,499.957,191.52,499.216,185.79z"/>
		</g>
		<g>
			<path style="fill:#FB7D4D;" d="M389.029,152.229c-4.786,15.269-9.572,30.538-14.357,45.807
				c-5.131,16.371-15.204,31.387-22.393,46.965c-4.756,10.304-5.718,22.295-4.088,33.526c3.156,0.898,6.327,1.691,9.483,2.588
				c-0.235,0.98-0.323,1.844-0.558,2.825c-0.092,0.384,0.673,0.759,1.067,0.731c0.394-0.028,0.727-0.289,1.033-0.538
				c0.882-0.718,1.764-1.435,2.647-2.153c2.077,0.242,4.275-0.164,6.311-0.641c-0.072-2.079-0.09-4.145-0.163-6.224
				c6.486-5.568,10.896-13.183,12.805-21.515c5.411-7.324,13.962-18.504,20.736-27.717c5.909-8.038,9.384-17.486,12.181-27.062
				c3.692-12.639,5.663-25.979,8.741-38.781L389.029,152.229z"/>
			<path style="fill:none;stroke:#000200;stroke-width:0.8;stroke-linecap:round;stroke-linejoin:round;stroke-miterlimit:10;" d="
				M357.52,281.286c1.396-6.667,2.793-13.335,4.189-20.002"/>
			<path style="fill:none;stroke:#000200;stroke-width:0.8;stroke-linecap:round;stroke-linejoin:round;stroke-miterlimit:10;" d="
				M361.736,281.852c2.205-2.324,4.411-4.648,6.616-6.972"/>
			<path style="fill:none;stroke:#000200;stroke-width:0.8;stroke-linecap:round;stroke-linejoin:round;stroke-miterlimit:10;" d="
				M356.428,273.249c0.676,0.677,1.352,1.354,2.028,2.031"/>
		</g>
		<g>
			<path style="fill:#FFFFFF;" d="M492.69,134.167c-8.965-2.987-18.186-5.567-27.133-8.607c-10.092-3.429-20.16-6.543-30.252-9.972
				c0.041,1.93-1.341,3.801-3.198,4.33c-1.856,0.529-4.147-0.418-5.129-2.08c-6.46,3.256-12.921,6.511-19.381,9.767
				c-5.809,2.927-11.397,6.459-14.868,11.961c-3.426,5.432-6.078,11.495-9.135,17.143c6.023,1.682,12.175,3.512,18.198,5.193
				c-0.509,1.775-0.773,3.398-0.371,5.201c0.402,1.803,2.056,3.47,3.884,3.204c0.926,13.119,1.809,26.226,2.735,39.345
				c26.572-2.827,52.944-6.262,79.284-10.768l-5.155-53.89C485.591,141.417,489.267,137.745,492.69,134.167z"/>
			<path style="fill:none;stroke:#000200;stroke-width:0.8;stroke-linecap:round;stroke-linejoin:round;stroke-miterlimit:10;" d="
				M418.151,123.104c2.861,5.543,9.215,9.074,15.433,8.578c6.218-0.497,11.93-4.992,13.875-10.919"/>
			<path style="fill:none;stroke:#000200;stroke-width:0.8;stroke-linecap:round;stroke-linejoin:round;stroke-miterlimit:10;" d="
				M401.799,161.896c1.678-4.892,3.356-9.784,5.034-14.676"/>
			<path style="fill:none;stroke:#000200;stroke-width:0.8;stroke-linecap:round;stroke-linejoin:round;stroke-miterlimit:10;" d="
				M385.838,153.22c5.655,1.917,11.31,3.835,16.965,5.752"/>
			<path style="fill:none;stroke:#000200;stroke-width:0.8;stroke-linecap:round;stroke-linejoin:round;stroke-miterlimit:10;" d="
				M488.138,132.874c-1.087,1.148-2.175,2.295-3.263,3.443"/>
		</g>
		<g>
			<g>
				<path style="fill:#50A785;" d="M490.782,171.871c-0.574,5.237-1.289,11.076-1.863,16.313
					c-17.434-9.405-33.236-22.724-44.937-38.708c0.269-10.728,5.521-21.23,13.943-27.88c4.323,1.506,8.865,3.087,13.188,4.593
					c-7.159,4.106-12.964,11.325-15.784,19.081C464.802,156.471,477.3,166.089,490.782,171.871z"/>
			</g>
			<path style="fill:#50A785;" d="M403.044,128.706c1.195,6.268,2.389,12.536,3.584,18.805c3.017-8.288,5.938-16.556,8.956-24.843
				L403.044,128.706z"/>
		</g>
		<g>
			<g>
				<path style="fill:#FFD990;" d="M452.502,87.629c-1.492-1.154-3.057-0.908-4.877-0.411c-4.929,1.346-9.32,4.512-12.215,8.718
					c-2.093-1.428-4.645-2.193-7.176-2.039c-3.972,0.242-7.64,3.082-9.372,6.665c-0.619,1.28-0.133,2.987,1.066,3.75l19.271,6.04
					c1.577-3.216,1.48-7.17-0.161-10.344c3.496-0.815,6.918-1.948,10.193-3.418c1.888-0.847,3.876-1.953,4.649-3.872
					C454.586,90.968,453.994,88.784,452.502,87.629z"/>
				<path style="fill:none;stroke:#FFD990;stroke-width:0.8;stroke-linecap:round;stroke-linejoin:round;stroke-miterlimit:10;" d="
					M435.499,95.894c3.037-5.185,8.22-9.069,14.049-10.529"/>
			</g>
			<g>
				<path style="fill:#FB7D4D;" d="M442.576,120.109c-1.601-0.683-3.228-1.105-4.829-1.787c-0.482-1.46-1.033-3.081-1.514-4.541
					c1.731-0.022,3.401-1.135,4.087-2.724c0.686-1.589,0.351-3.568-0.82-4.842c-1.171-1.275-2.954-1.714-4.595-1.164
					c-0.107,0.708-0.214,1.415-0.322,2.122c-0.293,0.359-1.432,0.073-1.781-0.232c-0.349-0.304-0.517-0.759-0.701-1.184
					c-0.184-0.425-0.425-0.865-0.842-1.065c-0.501-0.24-1.089-0.063-1.641,0.002c-1.316,0.155-2.694-0.409-3.522-1.443
					c-0.828-1.034-1.079-2.502-0.641-3.753c-1.441-0.023-2.958,0.57-4.077,1.478c-1.119,0.908-1.905,2.218-2.179,3.633
					c-0.307,1.586-0.686,3.175-0.972,4.765c-0.345,1.917,0.681,4.008,1.996,5.445c1.315,1.437,3.22,2.318,5.166,2.389
					c0.293,1.059,0.484,2.052,0.778,3.111c-1.177,0.588-2.516,1.299-3.693,1.886c2.05,3.627,6.089,5.991,10.237,5.61
					C436.859,127.434,441.221,124.049,442.576,120.109z"/>
				<circle style="fill:#000200;" cx="428.214" cy="107.479" r="0.8"/>
				<circle style="fill:#000200;" cx="420.55" cy="106.825" r="0.8"/>
				<path style="fill:none;stroke:#000200;stroke-width:0.8;stroke-linecap:round;stroke-linejoin:round;stroke-miterlimit:10;" d="
					M435.647,108.353c0.529-0.294,1.059-0.588,1.588-0.882"/>
				<path style="fill:none;stroke:#FFD990;stroke-width:0.8;stroke-linecap:round;stroke-linejoin:round;stroke-miterlimit:10;" d="
					M425.681,99.004c-1.134,1.205-1.634,2.976-1.299,4.596"/>
				<path style="fill:none;stroke:#000200;stroke-width:0.8;stroke-linecap:round;stroke-linejoin:round;stroke-miterlimit:10;" d="
					M419.337,103.684c0.464-0.796,1.736-0.942,2.367-0.271"/>
				<path style="fill:none;stroke:#000200;stroke-width:0.8;stroke-linecap:round;stroke-linejoin:round;stroke-miterlimit:10;" d="
					M426.205,104.682c0.618,0.024,1.236,0.047,1.854,0.071"/>
				<path style="fill:none;stroke:#000200;stroke-width:0.8;stroke-linecap:round;stroke-linejoin:round;stroke-miterlimit:10;" d="
					M424.201,106.684c-0.268,0.844-0.535,1.688-0.803,2.532c0.232,0.021,0.464,0.041,0.696,0.062"/>
				<path style="fill:none;stroke:#000200;stroke-width:0.8;stroke-linecap:round;stroke-linejoin:round;stroke-miterlimit:10;" d="
					M425.034,110.831c0.154,0.506,0.727,0.845,1.245,0.735c0.518-0.11,0.905-0.651,0.84-1.177"/>
				<path style="fill:none;stroke:#000200;stroke-width:0.8;stroke-linecap:round;stroke-linejoin:round;stroke-miterlimit:10;" d="
					M425.056,117.3c1.901,0.153,3.85-0.404,5.384-1.537"/>
				<path style="fill:none;stroke:#000200;stroke-width:0.8;stroke-linecap:round;stroke-linejoin:round;stroke-miterlimit:10;" d="
					M435.294,113.735c0.353,0,0.706,0,1.059,0"/>
			</g>
		</g>
		<g>
			<path style="fill:#FB7D4D;" d="M490.529,135.529c-0.706,0.647-1.701,1.085-2.407,1.732c-11.57-3.491-24.156-4.109-35.886-1.202
				c-3.363,4.624-10.089,13.871-10.089,13.871s-2.305,7.11-3.474,10.667c0.339,0.358,0.746,0.659,1.239,0.691
				c0.492,0.032,0.995-0.13,1.377-0.442c-0.634,1.058-1.288,2.107-1.922,3.165c0.043,0.505,0.479,0.991,0.979,1.081
				c0.499,0.089,1.009-0.048,1.493-0.201c1.695-0.537,3.323-1.288,4.832-2.23c-1.622,1.478-3.245,2.956-4.867,4.434
				c0.007,0.704,0.82,1.325,1.513,1.448c0.693,0.123,1.398-0.077,2.073-0.275c2.076-0.609,4.153-1.219,6.229-1.828
				c-1.383,0.873-2.765,1.747-4.147,2.62c-0.204,0.483,0.356,1.096,0.853,1.264c0.496,0.169,1.039,0.056,1.551-0.059
				c1.511-0.338,3.021-0.676,4.532-1.014c5.324-1.191,10.657-2.384,15.847-4.065c7.833,6.874,16.003,13.139,23.836,20.013
				c5.891,5.17,14.851,6.485,22.151,3.632c7.3-2.853,12.729-10.244,12.797-18.081c0.059-6.722-3.568-13.053-8.406-17.721
				C515.795,148.362,494.705,137.793,490.529,135.529z"/>
			<path style="fill:none;stroke:#000200;stroke-width:0.8;stroke-linecap:round;stroke-linejoin:round;stroke-miterlimit:10;" d="
				M440.669,161.465c1.884-2.499,3.768-4.998,5.652-7.497c1.987-2.635,4.247-5.293,6.608-7.598"/>
			<path style="fill:none;stroke:#000200;stroke-width:0.8;stroke-linecap:round;stroke-linejoin:round;stroke-miterlimit:10;" d="
				M444.901,163.928c3.744-2.959,7.489-5.918,11.233-8.877"/>
			<path style="fill:none;stroke:#000200;stroke-width:0.8;stroke-linecap:round;stroke-linejoin:round;stroke-miterlimit:10;" d="
				M449.608,167.418c3.441-1.883,6.882-3.766,10.323-5.648"/>
			<path style="fill:none;stroke:#000200;stroke-width:0.8;stroke-linecap:round;stroke-linejoin:round;stroke-miterlimit:10;" d="
				M469.683,165.382c0.887-0.341,1.774-0.683,2.66-1.024"/>
			<path style="fill:none;stroke:#000200;stroke-width:0.8;stroke-linecap:round;stroke-linejoin:round;stroke-miterlimit:10;" d="
				M488.158,137.02c9.879,5.091,19.757,10.183,29.636,15.274"/>
		</g>
		<g>
			<path style="fill:#FE5615;" d="M389.171,414.162c-0.884,10.915-6.296,21.394-14.684,28.434c-3.137,2.633-6.97,3.852-9.403,7.146
				l50.245,6.599c5.449-10.805,10.886-21.997,16.336-32.801C417.556,420.439,403.279,417.263,389.171,414.162z"/>
			<path style="fill:none;stroke:#000200;stroke-width:0.8;stroke-linecap:round;stroke-linejoin:round;stroke-miterlimit:10;" d="
				M393.599,421.025c3.209,1.078,6.419,2.157,9.628,3.235"/>
			<path style="fill:none;stroke:#000200;stroke-width:0.8;stroke-linecap:round;stroke-linejoin:round;stroke-miterlimit:10;" d="
				M392,424.036c3.079,1.183,6.158,2.366,9.237,3.549"/>
			<path style="fill:none;stroke:#000200;stroke-width:0.8;stroke-linecap:round;stroke-linejoin:round;stroke-miterlimit:10;" d="
				M389.977,428.209c3.064,1.281,6.128,2.563,9.192,3.844"/>
			<path style="fill:none;stroke:#000200;stroke-width:0.8;stroke-linecap:round;stroke-linejoin:round;stroke-miterlimit:10;" d="
				M388.199,432.635c3.045,0.984,6.09,1.968,9.135,2.952"/>
			<path style="fill:none;stroke:#000200;stroke-width:0.8;stroke-linecap:round;stroke-linejoin:round;stroke-miterlimit:10;" d="
				M385.72,436.188c3.135,0.942,6.27,1.884,9.405,2.827"/>
			<path style="fill:none;stroke:#000200;stroke-width:0.8;stroke-linecap:round;stroke-linejoin:round;stroke-miterlimit:10;" d="
				M372.122,445.078c2.599-0.595,5.395-0.294,7.807,0.842c2.412,1.135,4.426,3.098,5.623,5.48
				c10.585-0.377,21.512-0.425,32.097-0.802"/>
		</g>
		<g>
			<path style="fill:#FE5615;" d="M482.947,401.566c-14.655,5.599-28.888,11.296-43.543,16.895
				c5.648,7.752,6.87,18.515,3.102,27.335c-1.585,3.709-4.405,6.706-4.848,10.715l9.463-0.525
				c13.928-5.21,28.145-10.493,42.073-15.704C487.103,427.205,485.037,414.643,482.947,401.566z"/>
			<path style="fill:none;stroke:#000200;stroke-width:0.8;stroke-linecap:round;stroke-linejoin:round;stroke-miterlimit:10;" d="
				M438.239,454.559c1.677-3.145,4.8-5.481,8.291-6.202c3.491-0.721,7.283,0.186,10.069,2.409
				c10.254-6.204,20.211-12.104,30.465-18.308"/>
			<path style="fill:none;stroke:#000200;stroke-width:0.8;stroke-linecap:round;stroke-linejoin:round;stroke-miterlimit:10;" d="
				M445.54,421.799c3.295-0.998,6.59-1.996,9.884-2.994"/>
			<path style="fill:none;stroke:#000200;stroke-width:0.8;stroke-linecap:round;stroke-linejoin:round;stroke-miterlimit:10;" d="
				M446.292,425.3c3.218-0.998,6.435-1.996,9.653-2.994"/>
			<path style="fill:none;stroke:#000200;stroke-width:0.8;stroke-linecap:round;stroke-linejoin:round;stroke-miterlimit:10;" d="
				M447.235,429.002c3.133-1.072,6.267-2.144,9.4-3.215"/>
			<path style="fill:none;stroke:#000200;stroke-width:0.8;stroke-linecap:round;stroke-linejoin:round;stroke-miterlimit:10;" d="
				M447.497,433.004c3.348-0.73,6.695-1.46,10.043-2.19"/>
			<path style="fill:none;stroke:#000200;stroke-width:0.8;stroke-linecap:round;stroke-linejoin:round;stroke-miterlimit:10;" d="
				M447.772,436.784c3.551-1.169,7.102-2.338,10.654-3.507"/>
		</g>
		<g>
			<path style="fill:#FFADB5;" d="M493.708,222.857c-1.759-8.464-3.785-17.245-5.543-25.709
				c-27.37,3.625-54.355,7.027-81.726,10.652c-2.355,33.098-4.709,66.196-7.064,99.294c-0.849,11.939-0.153,23.647,3.606,35.011
				c-4.833,19.223-9.933,38.505-14.766,57.729c-1.29,5.13-1.163,10.54-0.3,15.759l43.098,11.552
				c2.936-1.431,5.605-3.701,7.423-6.415c15.225-5.228,30.531-9.556,45.755-14.784c2.049-6.53,1.452-13.55-0.284-20.17
				c-5.618-21.419-11.42-42.475-17.038-63.894c7.201-13.89,14.476-27.983,21.375-42.025
				C496.726,262.595,497.62,241.688,493.708,222.857z"/>
			
				<line style="fill:none;stroke:#000200;stroke-width:0.8;stroke-linecap:round;stroke-linejoin:round;stroke-miterlimit:10;" x1="405.795" y1="214.135" x2="489.329" y2="201.817"/>
			<path style="fill:none;stroke:#000200;stroke-width:0.8;stroke-linecap:round;stroke-linejoin:round;stroke-miterlimit:10;" d="
				M427.006,208.296c-1.248,4.002-2.496,8.004-3.744,12.006"/>
			<path style="fill:none;stroke:#000200;stroke-width:0.8;stroke-linecap:round;stroke-linejoin:round;stroke-miterlimit:10;" d="
				M429.922,207.835c-0.51,4.309-1.02,8.618-1.529,12.927"/>
			<path style="fill:none;stroke:#000200;stroke-width:0.8;stroke-linecap:round;stroke-linejoin:round;stroke-miterlimit:10;" d="
				M402.451,341.922c2.069-8.699,4.138-17.397,6.208-26.096c6.643-27.926,16.525-54.673,24.957-82.112"/>
			<path style="fill:none;stroke:#000200;stroke-width:0.8;stroke-linecap:round;stroke-linejoin:round;stroke-miterlimit:10;" d="
				M438.806,420.54c7.567-29.579,15.134-59.158,22.702-88.737l5.362-9.921"/>
			<path style="fill:none;stroke:#000200;stroke-width:0.8;stroke-linecap:round;stroke-linejoin:round;stroke-miterlimit:10;" d="
				M387.875,412.309c14.995,3.946,29.989,7.892,44.984,11.839"/>
			<path style="fill:none;stroke:#000200;stroke-width:0.8;stroke-linecap:round;stroke-linejoin:round;stroke-miterlimit:10;" d="
				M440.002,417.18c14.886-5.067,29.771-10.135,44.657-15.203"/>
			<path style="fill:none;stroke:#000200;stroke-width:0.8;stroke-linecap:round;stroke-linejoin:round;stroke-miterlimit:10;" d="
				M480.532,203.603c0.961,7.527,1.923,15.054,2.884,22.58c1.209,9.469,0.498,18.208-1.543,27.533
				c-4.596,20.999-14.641,40.203-23.781,59.659c-1.846-0.061-4.927,1.367-6.05,2.832c-1.123,1.466-1.487,3.483-0.948,5.249
				c0.675,2.211,2.614,3.895,3.144,6.145c0.614,2.607-1.117,5.543-3.696,6.267c-6.201,25.196-12.59,50.301-18.791,75.497
				c-1.17,4.752-1.995,9.129-5.162,12.86"/>
			<path style="fill:none;stroke:#000200;stroke-width:0.8;stroke-linecap:round;stroke-linejoin:round;stroke-miterlimit:10;" d="
				M461.97,205.964c2.524,9.889,11.225,17.91,21.286,19.622"/>
			<path style="fill:none;stroke:#000200;stroke-width:0.8;stroke-linecap:round;stroke-linejoin:round;stroke-miterlimit:10;" d="
				M409.303,213.695c-1.47,6.514-2.94,13.029-4.41,19.543"/>
		</g>
	</g>
</g>
</svg>
